<svg id="svg" version="1.1" xmlns="http://www.w3.org/2000/svg" xmlns:xlink="http://www.w3.org/1999/xlink" width="400" height="400" viewBox="0, 0, 400,400"><g id="svgg"><path id="path0" d="M139.556 53.378 C 139.188 53.973,139.482 57.771,140.081 60.167 C 140.414 61.496,141.095 64.346,141.594 66.500 C 142.782 71.617,144.525 76.761,145.223 77.205 C 145.330 77.273,145.362 77.329,145.294 77.331 C 145.161 77.334,145.490 78.223,146.525 80.656 C 147.642 83.280,147.395 84.322,145.125 86.573 C 141.951 89.719,136.743 92.648,131.331 94.330 C 101.383 103.640,95.340 106.223,80.688 115.985 C 74.282 120.253,73.402 121.017,71.376 124.069 C 69.220 127.319,61.753 138.720,60.430 140.784 C 59.795 141.774,58.697 143.483,57.990 144.583 C 54.347 150.246,54.029 154.739,56.317 168.215 C 56.688 170.396,57.072 172.496,57.172 172.882 C 57.708 174.952,58.397 176.871,58.811 177.442 C 59.293 178.108,60.432 179.250,60.614 179.250 C 60.670 179.250,60.952 179.475,61.239 179.750 C 61.526 180.025,62.456 180.845,63.306 181.573 C 64.765 182.823,65.278 183.431,68.062 187.214 C 69.837 189.626,72.384 192.028,72.858 191.735 C 72.936 191.687,73.000 191.731,73.000 191.833 C 73.000 191.936,73.069 191.977,73.152 191.925 C 73.236 191.874,73.330 191.888,73.361 191.958 C 73.392 192.028,74.129 192.626,75.000 193.287 C 75.871 193.948,77.146 194.989,77.833 195.600 C 82.987 200.183,86.903 203.068,88.199 203.238 C 88.411 203.266,88.799 203.375,89.062 203.481 C 89.325 203.587,89.775 203.705,90.062 203.742 C 90.349 203.780,90.621 203.827,90.667 203.847 C 90.712 203.868,90.825 203.899,90.917 203.916 C 91.008 203.934,91.196 203.997,91.333 204.056 C 91.471 204.115,91.733 204.185,91.917 204.211 C 92.100 204.238,92.326 204.307,92.418 204.365 C 92.729 204.559,94.566 204.976,97.083 205.423 C 100.919 206.104,101.602 206.255,103.672 206.875 C 106.199 207.633,108.190 208.370,110.333 209.343 C 111.296 209.779,112.533 210.273,113.083 210.439 C 114.319 210.813,117.708 212.460,118.835 213.236 C 120.252 214.210,123.529 215.321,124.366 215.111 C 125.013 214.949,127.419 212.884,129.086 211.060 C 132.226 207.627,133.280 206.267,134.910 203.542 C 135.718 202.191,136.175 201.848,136.397 202.425 C 136.622 203.011,134.502 207.150,132.005 211.000 C 131.203 212.237,130.380 213.700,130.177 214.250 C 129.973 214.800,129.092 216.900,128.219 218.917 C 124.439 227.644,122.360 233.727,121.616 238.237 C 121.514 238.853,122.532 243.252,122.974 244.107 C 123.725 245.559,126.295 247.409,131.167 250.003 C 132.496 250.711,134.127 251.594,134.792 251.966 C 135.456 252.337,136.000 252.612,136.000 252.577 C 136.000 252.430,138.130 254.841,138.667 255.596 C 139.386 256.608,143.005 258.548,143.917 258.410 C 144.265 258.357,144.322 258.375,144.106 258.467 C 143.816 258.592,145.748 259.595,146.100 259.502 C 146.162 259.485,146.259 259.542,146.315 259.628 C 146.371 259.714,147.072 260.090,147.872 260.463 C 150.098 261.502,151.404 262.432,152.170 263.524 C 152.900 264.565,153.543 265.118,155.120 266.063 C 156.889 267.124,157.232 267.986,157.420 271.852 C 157.552 274.587,157.515 274.792,156.150 278.905 C 154.510 283.846,153.639 292.138,154.597 293.689 C 154.646 293.768,154.716 293.992,154.754 294.188 C 154.792 294.384,154.970 294.827,155.150 295.172 C 155.330 295.518,155.433 295.845,155.378 295.900 C 155.323 295.955,155.365 296.000,155.472 296.000 C 155.579 296.000,155.658 296.056,155.647 296.125 C 155.577 296.568,155.743 296.924,156.306 297.545 C 158.792 300.282,159.476 303.645,158.821 309.894 C 158.215 315.673,158.982 324.872,161.164 338.000 C 161.923 342.564,162.159 343.194,163.401 343.973 C 165.807 345.481,167.462 345.919,171.685 346.166 C 173.187 346.255,174.996 346.376,175.704 346.437 C 177.644 346.603,177.809 346.354,177.075 344.373 C 176.533 342.912,175.908 342.300,173.034 340.417 C 172.894 340.325,172.641 340.119,172.473 339.958 C 172.304 339.798,172.054 339.667,171.917 339.667 C 171.779 339.667,171.667 339.602,171.667 339.523 C 171.667 339.443,171.348 339.166,170.958 338.907 C 168.728 337.422,168.498 336.843,168.378 332.405 C 168.268 328.365,168.550 324.366,169.186 320.937 C 169.918 316.988,170.049 313.453,169.841 303.250 C 169.773 299.867,169.862 298.997,170.664 295.250 C 170.920 294.058,171.135 292.971,171.143 292.833 C 171.151 292.696,171.228 292.171,171.315 291.667 C 171.402 291.162,171.522 290.037,171.581 289.167 C 171.709 287.309,171.764 286.789,171.917 286.000 C 171.980 285.679,172.045 285.342,172.062 285.250 C 172.079 285.158,172.142 285.005,172.202 284.909 C 172.297 284.757,172.781 281.512,172.809 280.833 C 172.815 280.696,172.868 280.171,172.927 279.667 C 172.985 279.162,173.056 278.150,173.085 277.417 C 173.113 276.683,173.219 275.446,173.319 274.667 C 173.420 273.887,173.533 273.008,173.572 272.713 C 173.610 272.418,173.682 272.109,173.733 272.028 C 173.835 271.862,173.988 270.592,174.087 269.083 C 174.162 267.941,174.795 265.385,175.404 263.767 C 175.632 263.162,175.783 262.667,175.739 262.667 C 175.695 262.667,175.782 262.479,175.932 262.250 C 176.082 262.021,176.157 261.833,176.098 261.833 C 176.039 261.833,176.103 261.618,176.239 261.354 C 176.375 261.091,176.440 260.829,176.382 260.771 C 176.325 260.714,176.357 260.667,176.453 260.667 C 176.617 260.667,176.891 260.066,176.851 259.792 C 176.841 259.723,176.905 259.667,176.992 259.667 C 177.470 259.667,179.833 254.736,179.833 253.740 C 179.833 253.265,180.235 252.753,180.486 252.908 C 180.640 253.003,180.662 253.629,180.574 255.475 C 180.469 257.713,180.490 258.014,180.826 259.083 C 181.354 260.766,181.354 260.766,181.432 262.500 C 181.471 263.371,181.579 265.621,181.671 267.500 C 181.789 269.914,181.782 272.115,181.648 275.000 C 181.214 284.314,181.326 301.788,181.852 306.583 C 182.077 308.641,182.167 309.715,182.228 311.083 C 182.257 311.725,182.404 313.712,182.555 315.500 C 183.194 323.072,183.370 336.338,182.849 337.708 C 182.597 338.373,181.920 339.342,181.081 340.244 C 180.670 340.685,180.333 341.148,180.333 341.273 C 180.333 341.398,180.273 341.500,180.200 341.500 C 179.682 341.500,179.514 343.629,180.000 344.045 C 180.183 344.202,180.333 344.284,180.333 344.228 C 180.333 344.172,180.427 344.201,180.542 344.294 C 180.987 344.653,182.562 344.850,185.583 344.927 C 188.469 345.000,188.267 345.084,189.424 343.336 C 189.878 342.649,190.584 341.787,190.993 341.419 C 193.024 339.590,193.424 339.096,193.961 337.748 L 194.491 336.417 194.443 328.083 C 194.400 320.730,194.337 318.650,194.087 316.333 C 193.965 315.200,193.984 308.222,194.115 306.083 C 194.281 303.376,194.280 302.089,194.109 298.833 C 194.035 297.412,193.978 294.760,193.983 292.940 C 193.988 291.107,193.920 289.495,193.831 289.328 C 193.738 289.154,193.733 289.004,193.819 288.972 C 193.902 288.941,194.019 288.167,194.079 287.250 C 194.227 285.027,194.287 284.446,194.504 283.167 C 194.804 281.397,194.573 279.823,193.796 278.340 C 193.056 276.926,193.022 276.583,193.366 274.000 C 193.936 269.719,193.532 258.210,192.758 256.683 C 192.148 255.478,191.564 253.861,191.332 252.734 C 191.221 252.193,191.084 251.675,191.028 251.583 C 190.972 251.492,190.905 251.282,190.880 251.118 C 190.713 250.049,188.121 244.333,187.803 244.333 C 187.728 244.333,187.667 244.235,187.667 244.115 C 187.667 243.995,187.535 243.747,187.375 243.565 C 187.215 243.382,186.975 243.049,186.843 242.825 C 185.973 241.343,185.263 240.235,185.128 240.148 C 185.042 240.092,184.979 239.979,184.987 239.898 C 184.996 239.817,184.906 239.637,184.789 239.500 C 184.671 239.362,184.563 239.191,184.550 239.118 C 184.536 239.045,184.371 238.725,184.183 238.407 C 183.995 238.089,183.859 237.807,183.879 237.782 C 183.900 237.756,183.784 237.532,183.621 237.284 C 183.459 237.036,183.366 236.833,183.416 236.833 C 183.466 236.833,183.353 236.532,183.165 236.164 C 182.810 235.467,182.917 234.833,183.391 234.833 C 183.508 234.833,183.785 234.665,184.006 234.458 C 184.228 234.252,184.411 234.107,184.413 234.137 C 184.418 234.208,185.210 233.905,186.358 233.391 L 187.300 232.969 189.187 233.934 C 190.225 234.465,191.226 235.032,191.412 235.193 C 191.598 235.354,191.882 235.583,192.042 235.702 C 192.687 236.176,193.554 240.517,193.805 244.526 L 193.937 246.635 194.784 247.943 C 195.749 249.431,195.825 249.647,196.412 252.500 C 197.076 255.726,197.474 256.954,197.895 257.067 C 198.728 257.290,199.262 257.048,199.391 256.388 C 199.423 256.220,199.492 255.971,199.544 255.833 C 199.596 255.696,199.641 255.471,199.643 255.333 C 199.645 255.196,199.695 254.708,199.753 254.250 C 199.951 252.676,200.134 250.432,200.232 248.375 C 200.242 248.169,200.310 248.000,200.382 248.000 C 200.455 248.000,200.499 247.906,200.481 247.792 C 200.462 247.677,200.536 247.367,200.644 247.102 C 200.753 246.838,200.865 246.500,200.892 246.352 C 200.948 246.052,201.697 244.463,201.844 244.333 C 202.055 244.148,203.184 241.553,203.226 241.159 C 203.251 240.926,203.313 240.664,203.364 240.576 C 203.440 240.445,203.848 239.296,203.924 239.000 C 203.935 238.954,204.102 238.582,204.294 238.174 C 204.487 237.766,204.607 237.372,204.562 237.299 C 204.517 237.226,204.560 237.167,204.657 237.167 C 204.754 237.167,204.817 237.110,204.798 237.042 C 204.778 236.973,204.859 236.743,204.976 236.531 C 205.094 236.319,205.218 236.000,205.252 235.823 C 205.421 234.947,206.658 234.361,207.715 234.656 C 208.101 234.764,208.529 234.873,208.667 234.898 C 210.089 235.159,211.428 236.021,211.453 236.691 C 211.457 236.815,211.508 237.142,211.566 237.417 C 211.623 237.692,211.709 238.209,211.757 238.566 C 211.804 238.923,211.884 239.280,211.933 239.360 C 212.025 239.509,212.134 240.331,212.238 241.667 C 212.271 242.079,212.226 242.942,212.140 243.583 C 212.053 244.225,211.974 244.844,211.963 244.958 C 211.953 245.073,211.882 245.167,211.806 245.167 C 211.729 245.167,211.683 245.223,211.704 245.292 C 211.744 245.429,211.453 245.918,210.463 247.375 C 210.105 247.902,209.855 248.333,209.907 248.333 C 209.960 248.333,209.820 248.540,209.598 248.792 C 209.375 249.044,208.962 249.512,208.680 249.833 C 208.398 250.154,207.960 250.717,207.708 251.083 C 207.456 251.450,207.165 251.825,207.062 251.917 C 206.959 252.008,206.484 252.664,206.007 253.374 C 205.530 254.083,205.069 254.707,204.984 254.760 C 204.898 254.813,204.871 254.926,204.924 255.012 C 204.977 255.097,204.940 255.167,204.843 255.167 C 204.746 255.167,204.667 255.271,204.667 255.399 C 204.667 255.527,204.554 255.674,204.417 255.727 C 204.279 255.780,204.167 255.938,204.167 256.078 C 204.167 256.218,204.092 256.333,204.000 256.333 C 203.908 256.333,203.833 256.412,203.833 256.507 C 203.833 256.603,203.644 256.884,203.412 257.132 C 203.181 257.380,202.924 257.846,202.841 258.167 C 202.362 260.019,202.332 260.815,202.418 269.167 C 202.539 280.767,202.537 283.934,202.410 287.167 C 202.334 289.113,202.365 290.257,202.516 291.083 C 202.634 291.725,202.720 292.294,202.707 292.348 C 202.695 292.402,202.758 292.927,202.848 293.515 C 202.938 294.103,203.007 295.657,203.002 296.968 C 202.997 298.280,203.076 300.005,203.177 300.802 C 203.330 302.005,203.363 303.730,203.287 306.500 C 203.275 306.943,203.343 307.303,203.664 308.493 C 204.128 310.212,204.337 314.766,204.058 317.083 C 203.838 318.908,203.955 320.792,204.331 321.496 C 204.418 321.658,204.449 321.829,204.401 321.877 C 204.353 321.925,204.424 322.228,204.559 322.552 C 204.694 322.875,204.771 323.173,204.730 323.215 C 204.550 323.395,205.368 326.446,205.785 327.148 C 206.036 327.571,206.224 327.973,206.204 328.042 C 206.183 328.110,206.246 328.167,206.343 328.167 C 206.440 328.167,206.473 328.242,206.417 328.333 C 206.360 328.425,206.393 328.500,206.490 328.500 C 206.587 328.500,206.667 328.576,206.667 328.670 C 206.667 328.973,207.508 330.182,207.655 330.090 C 207.734 330.042,207.843 330.119,207.898 330.262 C 207.953 330.404,208.073 330.474,208.165 330.417 C 208.258 330.360,208.333 330.398,208.333 330.500 C 208.333 330.602,208.403 330.643,208.488 330.590 C 208.574 330.538,208.691 330.572,208.750 330.667 C 208.809 330.761,208.926 330.796,209.012 330.743 C 209.097 330.690,209.167 330.726,209.167 330.823 C 209.167 331.096,210.649 331.020,211.575 330.701 C 212.360 330.431,213.430 329.320,213.572 328.626 C 213.596 328.511,213.702 328.206,213.808 327.947 C 213.913 327.689,214.001 327.389,214.002 327.281 C 214.003 327.172,214.304 326.040,214.672 324.766 C 215.040 323.491,215.337 322.104,215.333 321.682 C 215.322 320.379,215.480 313.730,215.593 310.750 C 215.652 309.192,215.735 306.904,215.777 305.667 C 215.957 300.383,215.994 299.541,216.086 298.750 C 216.140 298.292,216.215 297.504,216.254 297.000 C 216.293 296.496,216.367 295.633,216.419 295.083 C 216.471 294.533,216.546 292.058,216.586 289.583 C 216.625 287.108,216.697 284.446,216.746 283.667 C 216.795 282.887,216.875 281.500,216.925 280.583 C 216.975 279.667,217.046 278.804,217.084 278.667 C 217.122 278.529,217.194 277.629,217.243 276.667 C 217.293 275.704,217.370 274.579,217.414 274.167 C 217.459 273.754,217.535 272.892,217.584 272.250 C 217.632 271.608,217.707 270.858,217.749 270.583 C 217.791 270.308,217.870 269.221,217.926 268.167 C 218.100 264.838,218.171 263.941,218.337 263.000 C 218.425 262.496,218.542 261.633,218.596 261.083 C 218.765 259.358,218.817 258.942,218.977 258.000 C 219.062 257.496,219.102 257.033,219.065 256.973 C 219.028 256.912,219.069 256.837,219.155 256.806 C 219.242 256.775,219.338 256.563,219.369 256.333 C 219.400 256.104,219.484 255.823,219.556 255.708 C 219.628 255.594,219.636 255.500,219.575 255.500 C 219.513 255.500,219.635 255.361,219.846 255.190 C 220.655 254.534,221.113 255.321,221.259 257.621 C 221.293 258.150,221.329 258.696,221.338 258.833 C 221.426 260.076,221.684 264.558,221.737 265.750 C 221.773 266.575,221.844 267.775,221.894 268.417 C 221.944 269.058,222.031 272.655,222.087 276.409 C 222.143 280.162,222.216 283.278,222.250 283.333 C 222.342 283.482,222.516 286.245,222.523 287.667 C 222.528 288.876,222.763 290.575,222.972 290.917 C 223.202 291.293,223.295 292.526,223.430 297.000 C 223.573 301.746,223.564 301.651,223.935 302.417 C 224.295 303.162,224.327 304.589,224.019 306.167 C 223.919 306.679,223.868 308.222,223.902 309.667 C 224.014 314.304,224.018 316.045,223.925 318.566 C 223.874 319.932,223.897 321.132,223.976 321.233 C 224.202 321.524,224.047 325.793,223.731 328.000 C 223.639 328.641,223.492 331.324,223.463 332.891 C 223.456 333.272,223.023 333.797,221.263 335.558 C 218.943 337.879,218.529 338.503,218.789 339.283 L 218.944 339.750 221.624 339.796 C 223.954 339.835,226.949 339.676,227.879 339.464 C 228.219 339.386,231.667 335.861,231.667 335.592 C 231.667 335.494,231.815 335.321,231.997 335.207 C 232.395 334.959,233.153 333.512,233.270 332.778 C 233.316 332.488,233.386 332.100,233.426 331.917 C 233.881 329.814,234.015 328.764,234.088 326.764 C 234.134 325.473,234.208 323.929,234.251 323.333 C 234.295 322.737,234.367 321.688,234.413 321.000 C 234.458 320.313,234.573 319.092,234.667 318.287 C 234.761 317.483,234.832 316.620,234.826 316.370 C 234.812 315.848,234.904 315.155,235.169 313.775 C 235.272 313.239,235.316 312.761,235.267 312.712 C 235.218 312.663,235.246 312.497,235.328 312.343 C 235.410 312.190,235.517 311.768,235.565 311.407 C 235.614 311.046,235.816 310.150,236.015 309.417 C 236.213 308.683,236.379 307.990,236.383 307.875 C 236.386 307.760,236.436 307.667,236.494 307.667 C 236.754 307.667,236.958 306.440,236.969 304.808 C 236.980 303.242,237.037 302.909,237.449 301.975 C 237.889 300.980,237.918 300.763,237.950 298.333 C 237.968 296.912,238.039 294.700,238.107 293.417 C 238.255 290.623,238.256 290.145,238.109 287.667 C 238.047 286.612,237.967 284.960,237.933 283.994 C 237.871 282.259,237.435 280.167,237.135 280.167 C 237.050 280.167,237.013 280.110,237.054 280.042 C 237.094 279.973,237.050 279.729,236.955 279.500 C 236.861 279.271,236.772 279.008,236.760 278.917 C 236.747 278.825,236.640 278.422,236.523 278.021 C 236.220 276.987,236.158 276.112,236.170 273.083 C 236.183 269.878,236.159 270.080,236.700 268.632 C 236.792 268.384,236.854 268.130,236.836 268.067 C 236.819 268.005,236.874 267.908,236.959 267.852 C 237.043 267.796,237.323 267.387,237.581 266.943 C 237.971 266.272,239.577 264.431,239.582 264.650 C 239.583 264.686,239.921 264.540,240.333 264.326 C 240.746 264.111,241.193 263.917,241.326 263.894 C 241.766 263.819,242.833 263.286,242.833 263.141 C 242.833 263.064,242.918 263.000,243.023 263.000 C 243.127 263.000,243.376 262.831,243.577 262.625 C 243.779 262.419,244.087 262.131,244.263 261.985 C 244.822 261.524,245.384 260.782,245.445 260.427 C 245.477 260.238,245.545 259.858,245.595 259.583 C 245.646 259.308,245.565 258.596,245.417 258.000 C 245.268 257.404,245.118 256.617,245.085 256.250 C 244.957 254.846,244.855 253.539,244.782 252.374 C 244.741 251.710,244.623 251.065,244.521 250.942 C 244.420 250.820,244.379 250.676,244.432 250.624 C 244.484 250.571,244.440 250.366,244.333 250.166 C 244.227 249.967,244.104 249.604,244.060 249.360 C 244.016 249.116,243.909 248.892,243.822 248.861 C 243.736 248.830,243.707 248.736,243.759 248.652 C 243.811 248.569,243.769 248.500,243.667 248.500 C 243.564 248.500,243.520 248.436,243.568 248.359 C 243.616 248.281,243.432 248.005,243.161 247.744 C 242.889 247.484,242.667 247.328,242.667 247.397 C 242.667 247.467,242.562 247.425,242.433 247.304 C 242.305 247.182,241.747 246.708,241.193 246.250 C 240.639 245.792,240.181 245.327,240.176 245.217 C 240.171 245.107,240.071 244.957,239.954 244.883 C 239.836 244.810,239.595 244.412,239.417 244.000 C 239.238 243.588,239.028 243.204,238.949 243.148 C 238.870 243.092,238.810 242.979,238.816 242.898 C 238.822 242.817,238.643 242.150,238.418 241.417 C 237.895 239.708,237.084 236.311,237.138 236.048 C 237.213 235.676,236.854 233.242,236.650 232.743 C 236.540 232.472,236.426 232.137,236.398 232.000 C 236.370 231.862,236.230 231.225,236.086 230.583 C 235.715 228.924,235.611 228.361,235.421 227.000 C 235.364 226.588,235.242 225.987,235.150 225.667 C 235.058 225.346,234.943 224.784,234.896 224.419 C 234.848 224.054,234.721 223.699,234.613 223.630 C 234.505 223.561,234.487 223.504,234.573 223.503 C 234.818 223.499,233.836 222.540,233.496 222.451 C 233.109 222.350,232.167 222.915,232.167 223.248 C 232.167 223.386,232.099 223.500,232.017 223.500 C 231.934 223.500,231.050 224.381,230.052 225.458 C 229.054 226.535,228.166 227.444,228.077 227.478 C 227.989 227.512,227.731 227.611,227.504 227.697 C 226.363 228.131,224.824 228.328,223.985 228.148 C 223.520 228.048,223.051 227.948,222.944 227.925 C 222.616 227.856,221.772 227.510,221.333 227.265 C 221.104 227.136,220.654 226.893,220.333 226.724 C 220.013 226.555,219.713 226.379,219.667 226.333 C 219.621 226.287,219.166 225.932,218.655 225.544 C 217.726 224.838,216.795 223.904,216.874 223.756 C 216.898 223.713,216.804 223.542,216.667 223.377 C 216.529 223.212,216.395 222.853,216.370 222.580 C 216.318 222.032,216.032 221.198,215.786 220.876 C 215.563 220.585,215.590 218.894,215.832 218.002 C 215.943 217.590,215.999 216.937,215.955 216.550 C 215.911 216.163,215.922 215.800,215.980 215.743 C 216.037 215.686,216.089 215.589,216.097 215.528 C 216.111 215.412,216.513 214.501,217.176 213.083 C 217.390 212.625,217.551 212.194,217.533 212.125 C 217.515 212.056,217.587 212.000,217.694 212.000 C 217.801 212.000,217.848 211.960,217.799 211.910 C 217.750 211.861,218.185 211.363,218.767 210.804 C 219.349 210.246,219.790 209.731,219.747 209.662 C 219.704 209.592,219.769 209.496,219.891 209.449 C 220.014 209.402,220.242 209.095,220.398 208.765 C 220.554 208.436,220.791 208.167,220.924 208.167 C 221.058 208.167,221.167 208.092,221.167 208.000 C 221.167 207.908,221.223 207.852,221.292 207.874 C 221.454 207.927,222.667 207.175,222.667 207.022 C 222.667 206.957,222.899 206.887,223.182 206.865 C 224.446 206.769,225.270 205.828,224.777 205.042 C 224.706 204.927,224.684 204.833,224.729 204.833 C 224.773 204.833,224.736 204.590,224.646 204.292 C 224.556 203.994,224.447 203.544,224.405 203.292 C 224.364 203.040,224.289 202.590,224.240 202.292 C 224.095 201.419,224.033 201.109,223.914 200.667 C 223.852 200.438,223.807 200.085,223.815 199.883 C 223.822 199.682,223.753 199.470,223.661 199.413 C 223.570 199.357,223.534 199.247,223.582 199.169 C 223.630 199.091,223.553 198.553,223.411 197.972 C 223.269 197.392,223.113 196.621,223.065 196.260 C 223.017 195.898,222.910 195.477,222.828 195.323 C 222.746 195.170,222.713 195.009,222.755 194.967 C 222.797 194.925,222.683 194.321,222.500 193.625 C 222.318 192.930,222.125 192.073,222.071 191.722 C 221.944 190.891,221.295 188.581,220.745 187.000 C 220.506 186.313,220.276 185.563,220.233 185.333 C 220.191 185.104,220.111 184.804,220.055 184.667 C 219.999 184.529,219.931 184.304,219.904 184.167 C 219.877 184.029,219.816 183.729,219.769 183.500 C 219.723 183.271,219.638 182.747,219.580 182.336 C 219.523 181.925,219.407 181.505,219.323 181.404 C 219.238 181.302,219.207 181.182,219.252 181.136 C 219.514 180.874,218.276 176.897,217.316 174.917 C 216.655 173.553,216.519 172.733,216.751 171.500 C 216.828 171.087,216.761 170.687,216.522 170.130 C 216.317 169.654,216.247 169.303,216.345 169.242 C 216.435 169.187,216.498 169.204,216.484 169.279 C 216.431 169.588,216.508 169.848,216.631 169.772 C 216.703 169.728,216.773 169.817,216.787 169.971 C 216.945 171.717,217.898 173.802,219.153 175.146 C 219.527 175.547,219.833 175.904,219.833 175.939 C 219.833 175.974,220.058 176.313,220.333 176.693 C 220.608 177.073,220.833 177.442,220.833 177.513 C 220.833 177.585,221.050 178.117,221.315 178.697 C 221.762 179.675,222.016 180.345,222.096 180.750 C 222.184 181.203,222.545 182.425,222.704 182.812 C 222.803 183.053,222.912 183.397,222.947 183.578 C 222.981 183.758,223.121 184.077,223.258 184.286 C 223.395 184.495,223.459 184.667,223.400 184.667 C 223.341 184.667,223.386 184.779,223.500 184.917 C 223.614 185.054,223.652 185.167,223.583 185.167 C 223.515 185.167,223.553 185.279,223.667 185.417 C 223.781 185.554,223.816 185.667,223.745 185.667 C 223.673 185.667,223.751 185.817,223.917 186.000 C 224.083 186.183,224.160 186.333,224.089 186.333 C 224.017 186.333,224.062 186.457,224.188 186.609 C 224.314 186.761,224.398 186.911,224.375 186.942 C 224.352 186.974,224.339 187.019,224.346 187.042 C 224.353 187.065,224.392 187.268,224.433 187.493 C 224.475 187.718,224.563 187.943,224.629 187.993 C 224.696 188.043,224.780 188.196,224.817 188.333 C 224.968 188.902,225.807 191.323,225.910 191.490 C 225.972 191.589,226.050 192.157,226.084 192.752 C 226.147 193.825,226.982 195.833,227.366 195.833 C 227.451 195.833,227.478 195.901,227.427 195.983 C 227.376 196.065,227.545 196.358,227.803 196.634 C 228.060 196.910,228.360 197.430,228.468 197.791 C 228.697 198.556,229.613 199.886,229.822 199.757 C 229.900 199.709,230.010 199.785,230.064 199.926 C 230.177 200.222,232.155 200.247,232.750 199.961 C 233.134 199.776,235.500 197.363,235.500 197.156 C 235.500 197.081,235.762 196.733,236.083 196.384 C 236.403 196.035,236.665 195.656,236.666 195.542 C 236.666 195.427,236.730 195.333,236.808 195.333 C 236.886 195.333,237.430 194.603,238.017 193.711 C 239.079 192.096,241.396 188.943,241.991 188.305 C 242.369 187.899,242.899 187.962,242.965 188.422 C 242.991 188.606,242.590 189.918,242.073 191.337 C 240.776 194.896,240.628 196.599,241.416 198.887 C 241.694 199.691,241.652 203.271,241.339 205.583 C 241.227 206.408,241.116 208.546,241.092 210.333 C 241.049 213.513,240.997 213.892,240.416 215.245 C 240.222 215.695,240.162 216.133,240.228 216.613 C 240.281 217.001,240.260 217.359,240.181 217.408 C 240.051 217.488,239.782 218.463,239.756 218.947 C 239.750 219.055,239.690 219.198,239.623 219.266 C 239.555 219.334,239.500 219.501,239.500 219.637 C 239.500 219.774,239.309 220.136,239.075 220.443 C 237.226 222.866,237.327 229.705,239.268 233.535 C 239.490 233.973,239.659 234.350,239.644 234.374 C 239.629 234.397,239.794 234.754,240.009 235.167 C 240.225 235.579,240.414 235.973,240.430 236.042 C 240.446 236.110,240.477 236.204,240.500 236.250 C 240.571 236.391,240.604 236.554,240.737 237.417 C 240.808 237.875,241.126 239.095,241.443 240.128 C 241.761 241.161,242.119 242.361,242.240 242.795 C 242.469 243.617,243.180 245.356,243.346 245.500 C 243.399 245.546,243.584 245.827,243.757 246.125 C 243.930 246.423,244.135 246.667,244.212 246.667 C 244.290 246.667,244.314 246.730,244.266 246.808 C 244.218 246.886,244.327 247.109,244.509 247.305 C 244.691 247.500,244.838 247.718,244.836 247.788 C 244.833 247.859,245.047 248.254,245.310 248.667 C 246.216 250.085,247.088 252.432,247.322 254.086 C 247.582 255.926,249.001 258.925,249.590 258.880 C 251.168 258.762,253.778 256.661,254.646 254.812 C 255.636 252.702,256.790 251.968,259.167 251.936 C 260.810 251.914,260.712 251.960,262.498 250.333 C 264.381 248.618,265.191 247.896,266.792 246.508 C 267.548 245.852,268.167 245.244,268.167 245.157 C 268.167 245.071,268.262 245.000,268.378 245.000 C 269.108 245.000,272.329 241.068,272.556 239.898 C 272.639 239.472,273.248 238.197,273.661 237.583 C 274.578 236.221,272.467 229.000,271.151 229.000 C 271.068 229.000,271.000 228.894,271.000 228.764 C 271.000 228.634,270.944 228.503,270.875 228.472 C 270.806 228.442,270.347 227.629,269.854 226.667 C 269.362 225.704,268.856 224.833,268.729 224.732 C 268.603 224.630,268.500 224.480,268.500 224.398 C 268.500 224.317,268.202 223.924,267.838 223.525 C 267.149 222.771,266.599 221.728,266.070 220.167 C 265.684 219.030,265.154 218.145,264.594 217.705 C 264.359 217.520,264.167 217.314,264.167 217.248 C 264.167 217.067,262.935 215.908,262.611 215.784 C 262.455 215.724,262.256 215.485,262.168 215.252 C 261.979 214.756,260.813 212.880,260.431 212.458 C 260.286 212.298,260.167 212.092,260.167 212.000 C 260.167 211.908,260.092 211.833,260.000 211.833 C 259.908 211.833,259.833 211.752,259.833 211.653 C 259.833 211.449,257.819 208.448,257.625 208.361 C 257.556 208.331,257.500 208.199,257.500 208.069 C 257.500 207.940,257.425 207.833,257.333 207.833 C 257.242 207.833,257.167 207.739,257.167 207.623 C 257.167 207.508,256.979 207.211,256.750 206.964 C 256.521 206.717,256.333 206.480,256.333 206.438 C 256.333 206.351,255.765 205.652,255.208 205.054 C 255.002 204.833,254.833 204.601,254.833 204.538 C 254.833 204.476,254.349 203.936,253.758 203.338 C 252.348 201.912,252.304 200.228,253.597 197.208 C 253.744 196.864,253.978 196.209,254.117 195.752 C 254.256 195.295,254.474 194.772,254.601 194.590 C 254.729 194.408,254.833 194.120,254.833 193.949 C 254.833 193.475,255.243 193.713,255.303 194.221 C 255.332 194.466,255.430 194.667,255.521 194.667 C 255.612 194.667,255.640 194.742,255.583 194.833 C 255.527 194.925,255.539 195.094,255.611 195.208 C 255.682 195.323,255.746 195.492,255.751 195.583 C 255.792 196.278,256.059 197.517,256.185 197.595 C 256.270 197.647,256.300 197.753,256.252 197.831 C 256.204 197.909,256.239 198.168,256.330 198.407 C 256.485 198.817,256.528 198.989,256.760 200.125 C 256.879 200.710,258.657 204.377,258.900 204.539 C 259.001 204.606,259.022 204.663,258.948 204.664 C 258.802 204.667,259.833 206.213,260.043 206.306 C 260.112 206.337,260.126 206.430,260.075 206.514 C 260.023 206.598,260.064 206.667,260.167 206.667 C 260.269 206.667,260.307 206.742,260.250 206.833 C 260.193 206.925,260.214 207.000,260.296 207.000 C 260.378 207.000,260.447 207.094,260.450 207.208 C 260.467 207.909,263.190 211.626,263.731 211.688 C 263.833 211.700,264.067 211.734,264.250 211.764 C 265.580 211.983,266.312 211.998,266.754 211.816 C 267.027 211.703,267.287 211.603,267.333 211.594 C 267.798 211.497,270.372 209.937,270.901 209.432 C 271.276 209.073,271.864 208.654,272.207 208.500 C 272.551 208.347,272.776 208.159,272.708 208.084 C 272.639 208.009,272.710 207.992,272.864 208.047 C 273.021 208.103,273.319 208.012,273.537 207.840 C 274.213 207.308,275.364 206.774,275.966 206.712 C 276.284 206.680,276.814 206.540,277.144 206.402 C 277.674 206.181,279.269 205.965,281.917 205.757 C 284.581 205.547,285.348 205.471,286.250 205.329 C 286.800 205.242,287.504 205.131,287.815 205.081 C 288.125 205.032,288.460 204.942,288.558 204.881 C 288.656 204.820,288.889 204.754,289.076 204.733 C 289.263 204.712,289.642 204.601,289.917 204.486 C 290.192 204.372,290.473 204.262,290.542 204.243 C 290.610 204.224,290.685 204.193,290.708 204.175 C 290.731 204.156,290.890 204.115,291.062 204.082 C 291.829 203.938,293.098 203.614,293.250 203.524 C 293.342 203.470,293.492 203.420,293.583 203.413 C 294.090 203.374,295.016 203.108,295.097 202.978 C 295.148 202.896,295.260 202.871,295.345 202.924 C 295.430 202.977,295.594 202.961,295.708 202.890 C 295.823 202.818,296.067 202.738,296.250 202.711 C 297.795 202.487,302.333 200.811,302.333 200.465 C 302.333 200.382,302.408 200.360,302.500 200.417 C 302.592 200.473,302.667 200.436,302.667 200.333 C 302.667 200.231,302.742 200.193,302.833 200.250 C 302.925 200.307,303.000 200.269,303.000 200.167 C 303.000 200.064,303.075 200.027,303.167 200.083 C 303.258 200.140,303.333 200.107,303.333 200.010 C 303.333 199.913,303.446 199.833,303.583 199.833 C 303.721 199.833,303.833 199.746,303.833 199.639 C 303.833 199.532,303.881 199.493,303.940 199.551 C 304.030 199.641,307.578 197.332,307.833 197.019 C 307.879 196.962,308.122 196.811,308.372 196.681 C 308.623 196.552,308.979 196.306,309.164 196.134 C 309.349 195.961,309.500 195.866,309.500 195.922 C 309.500 196.094,310.365 195.402,311.574 194.263 C 312.210 193.664,312.772 193.152,312.824 193.126 C 313.391 192.836,314.167 192.267,314.167 192.140 C 314.167 192.052,314.242 192.027,314.333 192.083 C 314.425 192.140,314.500 192.102,314.500 192.000 C 314.500 191.898,314.575 191.860,314.667 191.917 C 314.758 191.973,314.833 191.936,314.833 191.833 C 314.833 191.731,314.894 191.685,314.969 191.731 C 315.146 191.840,316.833 190.875,316.833 190.663 C 316.833 190.573,316.914 190.500,317.012 190.500 C 317.561 190.500,322.667 185.851,322.667 185.351 C 322.667 185.271,322.948 184.909,323.292 184.547 C 324.845 182.908,326.829 180.383,326.832 180.042 C 326.833 179.927,326.897 179.833,326.974 179.833 C 327.051 179.833,327.257 179.555,327.432 179.215 C 327.607 178.875,327.918 178.436,328.124 178.238 C 328.459 177.917,329.028 176.656,328.970 176.364 C 328.957 176.301,328.992 176.137,329.047 176.000 C 329.102 175.862,329.259 175.300,329.395 174.750 C 329.532 174.200,329.774 173.450,329.934 173.083 C 330.095 172.717,330.243 172.328,330.263 172.219 C 330.284 172.110,330.496 171.810,330.734 171.554 C 330.972 171.297,331.167 170.992,331.167 170.877 C 331.167 170.761,331.223 170.666,331.292 170.665 C 331.457 170.663,333.167 169.059,333.167 168.906 C 333.167 168.840,333.281 168.703,333.421 168.601 C 333.651 168.433,334.861 165.310,334.803 165.033 C 334.790 164.969,334.869 164.700,334.978 164.435 C 335.087 164.170,335.137 163.915,335.089 163.867 C 335.042 163.820,335.092 163.674,335.200 163.543 C 335.382 163.324,335.452 161.664,335.354 159.917 C 335.288 158.757,334.990 157.298,334.502 155.750 C 333.839 153.644,333.002 150.214,332.747 148.552 C 332.703 148.259,332.584 147.809,332.484 147.552 C 332.384 147.294,332.268 146.901,332.226 146.678 C 332.184 146.456,332.098 146.193,332.036 146.095 C 331.973 145.997,331.911 145.860,331.898 145.792 C 331.886 145.723,331.856 145.629,331.833 145.583 C 331.810 145.537,331.776 145.444,331.757 145.375 C 331.523 144.524,331.442 144.333,331.315 144.333 C 331.234 144.333,331.182 144.277,331.200 144.208 C 331.265 143.962,330.974 143.333,330.794 143.333 C 330.694 143.333,330.660 143.285,330.719 143.225 C 330.856 143.088,328.840 139.167,328.633 139.167 C 328.549 139.167,328.527 139.091,328.584 138.999 C 328.641 138.907,328.571 138.786,328.427 138.731 C 328.284 138.676,328.167 138.524,328.167 138.394 C 328.167 138.263,328.071 138.119,327.954 138.075 C 327.837 138.030,327.557 137.694,327.331 137.330 C 327.106 136.965,326.864 136.667,326.794 136.667 C 326.724 136.667,326.667 136.554,326.667 136.417 C 326.667 136.279,326.592 136.167,326.500 136.167 C 326.408 136.167,326.333 136.066,326.333 135.943 C 326.333 135.820,325.952 135.089,325.486 134.318 C 325.021 133.547,324.485 132.617,324.297 132.250 C 324.109 131.883,323.908 131.546,323.849 131.500 C 323.791 131.454,323.649 131.202,323.533 130.939 C 323.219 130.225,321.632 127.833,321.472 127.833 C 321.396 127.833,321.352 127.766,321.375 127.683 C 321.428 127.491,320.180 125.833,319.982 125.833 C 319.900 125.833,319.833 125.731,319.833 125.606 C 319.833 125.481,319.440 125.017,318.958 124.575 C 318.477 124.132,316.941 122.660,315.544 121.302 C 314.148 119.944,312.917 118.833,312.808 118.833 C 312.700 118.833,312.655 118.789,312.709 118.735 C 312.763 118.681,312.314 118.175,311.710 117.610 C 311.107 117.045,310.551 116.508,310.477 116.417 C 310.402 116.325,309.744 115.500,309.014 114.583 C 307.445 112.612,306.094 111.275,304.833 110.447 C 304.329 110.116,303.698 109.646,303.431 109.403 C 302.886 108.906,302.198 108.584,301.333 108.423 C 301.012 108.363,300.600 108.285,300.417 108.250 C 300.233 108.215,299.840 108.113,299.542 108.022 C 299.244 107.931,299.000 107.898,299.000 107.949 C 299.000 107.999,298.906 107.963,298.792 107.868 C 298.677 107.773,298.526 107.690,298.457 107.684 C 298.387 107.678,298.106 107.557,297.832 107.416 C 297.558 107.274,297.333 107.207,297.333 107.266 C 297.333 107.326,297.221 107.281,297.083 107.167 C 296.946 107.053,296.832 107.025,296.831 107.105 C 296.829 107.185,296.770 107.159,296.700 107.048 C 296.629 106.936,296.311 106.811,295.994 106.768 C 293.904 106.490,291.249 105.183,291.182 104.399 C 291.174 104.298,290.979 104.013,290.750 103.766 C 290.521 103.518,290.333 103.282,290.333 103.240 C 290.333 103.044,288.925 101.127,288.725 101.051 C 288.601 101.003,288.500 100.860,288.500 100.732 C 288.500 100.280,286.587 98.586,285.333 97.927 C 284.646 97.567,284.083 97.289,284.083 97.311 C 284.083 97.333,283.783 97.226,283.417 97.072 C 283.050 96.918,282.664 96.780,282.558 96.764 C 282.453 96.748,282.266 96.654,282.142 96.554 C 281.741 96.231,279.833 95.325,279.831 95.456 C 279.829 95.526,279.773 95.508,279.706 95.417 C 279.514 95.155,275.536 93.254,275.292 93.306 C 275.223 93.321,275.167 93.254,275.167 93.157 C 275.167 93.060,275.098 93.023,275.014 93.075 C 274.930 93.126,274.837 93.112,274.806 93.043 C 274.718 92.844,273.334 91.981,273.331 92.123 C 273.329 92.193,273.273 92.171,273.206 92.075 C 272.923 91.669,264.430 87.293,264.258 87.464 C 264.208 87.514,264.167 87.456,264.167 87.333 C 264.167 87.211,264.117 87.160,264.057 87.221 C 263.997 87.281,263.865 87.264,263.765 87.182 C 263.665 87.101,262.533 86.491,261.250 85.828 C 258.232 84.269,256.341 83.212,254.788 82.218 C 254.099 81.777,253.148 81.208,252.674 80.952 C 251.367 80.249,250.888 78.671,251.345 76.579 C 251.465 76.031,251.568 75.546,251.576 75.500 C 251.583 75.454,251.661 75.304,251.750 75.167 C 252.134 74.573,252.629 73.352,252.528 73.250 C 252.467 73.189,252.552 73.041,252.718 72.920 C 252.883 72.799,253.030 72.542,253.045 72.350 C 253.059 72.157,253.130 72.000,253.202 72.000 C 253.274 72.000,253.334 71.906,253.335 71.792 C 253.338 71.382,254.177 69.790,255.152 68.341 C 255.698 67.530,256.100 66.822,256.045 66.767 C 255.990 66.712,256.024 66.667,256.122 66.667 C 256.219 66.667,256.545 66.273,256.845 65.792 C 257.146 65.310,257.542 64.748,257.725 64.542 C 257.908 64.335,257.989 64.166,257.904 64.164 C 257.819 64.163,257.828 64.106,257.923 64.039 C 258.304 63.770,260.234 60.608,260.128 60.426 C 260.104 60.383,260.233 60.234,260.417 60.096 C 260.600 59.957,260.675 59.840,260.583 59.836 C 260.483 59.831,260.489 59.779,260.597 59.706 C 260.696 59.638,261.054 59.096,261.391 58.500 C 261.729 57.904,262.081 57.304,262.174 57.167 C 262.267 57.029,262.387 56.785,262.441 56.625 C 262.495 56.465,262.605 56.333,262.686 56.333 C 262.767 56.333,262.833 56.229,262.833 56.101 C 262.833 55.973,262.951 55.824,263.094 55.769 C 263.237 55.714,263.308 55.593,263.251 55.501 C 263.194 55.409,263.214 55.333,263.296 55.333 C 263.596 55.333,263.490 54.198,263.149 53.765 C 262.736 53.240,261.734 53.177,260.729 53.613 C 260.374 53.767,259.933 53.918,259.750 53.948 C 259.567 53.978,257.692 54.648,255.583 55.437 C 253.475 56.226,250.887 57.156,249.833 57.504 C 245.669 58.879,242.290 60.611,240.291 62.397 C 237.278 65.087,236.913 65.349,234.296 66.686 C 231.166 68.285,230.392 68.934,228.887 71.224 C 228.109 72.409,227.168 73.517,225.753 74.917 C 221.315 79.307,219.973 84.363,221.398 91.328 C 221.987 94.204,222.509 95.214,224.070 96.489 C 225.668 97.795,226.696 98.956,227.539 100.404 C 230.142 104.880,230.283 105.067,232.095 106.431 C 232.759 106.931,233.849 107.995,234.516 108.795 C 236.491 111.164,237.025 111.666,238.202 112.263 C 238.817 112.576,239.989 113.270,240.806 113.806 C 242.717 115.061,245.606 116.279,247.203 116.503 C 250.456 116.959,254.388 118.874,259.020 122.257 C 259.536 122.634,260.974 123.449,262.216 124.069 C 265.972 125.945,268.144 128.083,269.808 131.540 C 270.896 133.800,270.890 133.797,271.949 132.577 C 273.872 130.363,275.500 125.704,275.500 122.416 C 275.500 120.207,276.846 119.668,277.654 121.553 C 278.056 122.492,278.598 124.898,278.842 126.833 C 279.071 128.652,278.931 132.124,278.616 132.440 C 278.552 132.503,278.500 132.667,278.500 132.804 C 278.500 133.153,277.295 135.554,277.038 135.719 C 276.922 135.793,276.870 135.924,276.923 136.010 C 276.976 136.096,276.945 136.167,276.854 136.167 C 276.693 136.167,276.492 136.602,276.516 136.898 C 276.523 136.979,276.457 137.092,276.370 137.148 C 276.283 137.204,276.059 137.550,275.872 137.917 C 275.686 138.283,275.190 138.958,274.770 139.417 C 274.351 139.875,274.006 140.305,274.004 140.372 C 273.999 140.522,272.694 141.211,272.279 141.283 C 272.112 141.312,271.812 141.426,271.612 141.537 C 271.413 141.647,271.212 141.742,271.167 141.746 C 271.121 141.750,270.821 141.854,270.500 141.976 C 269.171 142.482,268.667 142.725,268.667 142.859 C 268.667 142.936,268.570 143.000,268.451 143.000 C 268.332 143.000,267.923 143.281,267.541 143.625 C 267.159 143.969,266.501 144.512,266.079 144.833 C 265.658 145.154,265.016 145.735,264.653 146.125 C 264.290 146.515,263.952 146.833,263.903 146.833 C 263.853 146.833,263.268 147.377,262.604 148.042 C 259.846 150.801,258.277 151.512,256.083 150.999 C 255.625 150.891,254.612 150.698,253.833 150.568 C 252.121 150.284,252.419 150.369,250.500 149.623 C 248.499 148.845,241.356 146.854,240.250 146.765 C 239.212 146.682,237.740 146.910,236.518 147.343 C 236.004 147.525,235.396 147.705,235.167 147.744 C 230.683 148.507,222.362 152.371,219.546 154.999 C 219.251 155.274,218.932 155.500,218.838 155.500 C 218.744 155.500,218.667 155.579,218.667 155.677 C 218.667 155.774,218.592 155.807,218.500 155.750 C 218.408 155.693,218.333 155.718,218.333 155.805 C 218.333 156.014,217.345 156.153,217.226 155.961 C 217.175 155.878,217.028 155.851,216.900 155.900 C 216.772 155.949,216.667 155.933,216.667 155.865 C 216.667 155.753,215.680 155.308,215.519 155.346 C 215.483 155.355,215.408 155.296,215.352 155.215 C 215.296 155.134,214.875 154.853,214.417 154.590 C 213.958 154.328,213.133 153.808,212.583 153.434 C 212.033 153.061,211.527 152.774,211.458 152.795 C 211.390 152.816,211.333 152.754,211.333 152.657 C 211.333 152.560,211.258 152.527,211.167 152.583 C 211.075 152.640,211.000 152.621,211.000 152.541 C 211.000 152.400,209.940 151.825,209.726 151.850 C 209.668 151.856,209.575 151.787,209.518 151.696 C 209.462 151.605,208.329 150.987,207.000 150.323 C 205.671 149.659,204.284 148.927,203.918 148.696 C 203.552 148.466,203.158 148.278,203.043 148.278 C 202.928 148.278,202.833 148.211,202.833 148.129 C 202.833 148.047,202.765 148.023,202.681 148.075 C 202.597 148.126,202.502 148.089,202.470 147.992 C 202.437 147.895,202.284 147.797,202.130 147.774 C 201.976 147.751,201.714 147.613,201.550 147.466 C 201.300 147.244,200.189 146.704,199.915 146.672 C 199.871 146.667,199.591 146.557,199.293 146.428 C 198.093 145.909,196.861 145.480,196.402 145.420 C 196.135 145.385,195.879 145.340,195.833 145.319 C 195.787 145.299,195.675 145.268,195.583 145.250 C 195.492 145.232,195.304 145.170,195.167 145.113 C 193.680 144.488,191.171 144.629,189.000 145.459 C 188.037 145.827,186.406 146.374,185.375 146.674 C 184.344 146.974,183.500 147.287,183.500 147.369 C 183.500 147.452,183.425 147.473,183.333 147.417 C 183.242 147.360,183.167 147.381,183.167 147.462 C 183.167 147.544,183.071 147.611,182.954 147.611 C 182.837 147.611,181.415 148.303,179.793 149.149 C 178.171 149.995,176.803 150.681,176.754 150.673 C 176.704 150.666,176.420 150.790,176.123 150.948 C 175.826 151.106,175.546 151.243,175.500 151.251 C 175.090 151.326,174.545 151.597,174.363 151.816 C 174.242 151.963,174.193 151.984,174.255 151.863 C 174.349 151.680,174.308 151.680,174.017 151.861 C 173.825 151.982,173.667 152.142,173.667 152.217 C 173.667 152.292,173.595 152.309,173.508 152.255 C 173.321 152.139,172.000 153.755,172.000 154.098 C 172.000 154.228,171.927 154.333,171.839 154.333 C 171.750 154.333,171.720 154.445,171.773 154.582 C 171.827 154.723,171.754 154.874,171.604 154.932 C 171.459 154.988,171.173 155.307,170.969 155.642 C 170.249 156.820,169.879 156.830,169.401 155.686 C 169.265 155.361,169.092 155.055,169.016 155.006 C 168.941 154.957,168.088 153.717,167.121 152.250 C 164.126 147.706,164.219 147.794,161.979 147.403 C 156.696 146.481,150.894 147.635,144.167 150.946 C 139.439 153.273,137.383 153.945,132.822 154.658 C 131.591 154.850,130.133 155.121,129.583 155.260 C 127.468 155.793,122.394 155.510,120.625 154.760 C 120.281 154.615,120.000 154.543,120.000 154.602 C 120.000 154.660,119.896 154.621,119.769 154.516 C 119.642 154.410,118.910 154.095,118.144 153.816 C 117.377 153.536,116.511 153.126,116.219 152.904 C 115.928 152.682,115.628 152.497,115.553 152.493 C 115.197 152.474,113.178 149.202,113.090 148.500 C 113.084 148.454,112.994 148.192,112.889 147.917 C 112.482 146.850,112.448 146.747,112.469 146.638 C 112.481 146.576,112.241 145.986,111.935 145.325 C 111.219 143.779,111.209 141.929,111.908 140.284 C 112.056 139.937,112.136 139.585,112.086 139.504 C 112.036 139.423,112.075 139.307,112.174 139.246 C 112.272 139.185,112.337 138.973,112.318 138.776 C 112.299 138.578,112.329 138.304,112.384 138.167 C 112.439 138.029,112.521 137.662,112.565 137.350 C 112.609 137.038,112.717 136.738,112.805 136.683 C 113.037 136.538,115.166 132.954,115.166 132.708 C 115.167 132.594,115.236 132.500,115.320 132.500 C 115.499 132.500,116.267 131.309,116.207 131.125 C 116.185 131.056,116.242 131.000,116.333 131.000 C 116.425 131.000,116.500 130.887,116.500 130.750 C 116.500 130.612,116.564 130.500,116.643 130.500 C 116.721 130.500,117.101 130.050,117.486 129.500 C 117.872 128.950,118.135 128.500,118.071 128.500 C 118.007 128.500,118.246 128.273,118.602 127.997 C 118.958 127.720,119.442 127.271,119.677 126.999 C 120.099 126.511,122.694 124.833,123.028 124.833 C 123.123 124.833,122.987 125.088,122.726 125.399 C 122.091 126.155,121.373 127.214,121.367 127.402 C 121.365 127.485,121.244 127.620,121.098 127.702 C 120.953 127.783,120.833 127.924,120.833 128.015 C 120.833 128.106,120.680 128.345,120.494 128.545 C 120.307 128.746,120.111 129.080,120.059 129.288 C 120.007 129.496,119.893 129.667,119.805 129.667 C 119.718 129.667,119.693 129.742,119.750 129.833 C 119.807 129.925,119.761 130.000,119.649 130.000 C 119.536 130.000,119.490 130.046,119.546 130.101 C 119.602 130.157,119.390 130.578,119.075 131.035 C 118.760 131.493,118.539 131.929,118.585 132.003 C 118.631 132.077,118.603 132.163,118.522 132.194 C 118.345 132.261,117.186 134.538,117.116 134.955 C 117.089 135.117,116.984 135.400,116.883 135.583 C 116.782 135.767,116.690 135.972,116.678 136.040 C 116.666 136.107,116.507 136.512,116.323 136.940 C 116.140 137.367,115.971 137.837,115.949 137.984 C 115.926 138.130,115.849 138.344,115.777 138.458 C 115.706 138.573,115.701 138.753,115.766 138.859 C 115.835 138.970,115.812 139.007,115.713 138.945 C 115.503 138.815,115.299 139.717,115.450 140.109 C 115.517 140.284,115.491 140.347,115.380 140.279 C 115.274 140.213,115.158 140.411,115.090 140.775 C 114.962 141.454,115.206 141.832,115.799 141.877 C 115.993 141.891,116.121 141.934,116.083 141.973 C 116.045 142.011,116.119 142.247,116.248 142.497 C 116.636 143.247,118.208 143.330,119.750 142.682 C 120.392 142.413,122.229 141.668,123.833 141.026 C 128.887 139.005,141.045 133.300,141.350 132.806 C 141.407 132.714,141.502 132.645,141.560 132.652 C 141.903 132.698,142.006 132.645,141.901 132.474 C 141.828 132.357,141.855 132.327,141.969 132.398 C 142.149 132.509,143.167 132.087,143.167 131.903 C 143.167 131.854,143.092 131.860,143.000 131.917 C 142.729 132.084,142.810 131.893,143.115 131.645 C 143.307 131.490,143.357 131.483,143.272 131.625 C 143.072 131.958,143.389 131.867,144.000 131.417 C 144.311 131.187,144.651 131.000,144.757 131.000 C 144.862 131.000,145.072 130.863,145.224 130.695 C 145.376 130.527,145.875 130.215,146.333 130.000 C 146.792 129.785,147.167 129.543,147.167 129.462 C 147.167 129.380,147.242 129.360,147.333 129.417 C 147.425 129.473,147.500 129.436,147.500 129.333 C 147.500 129.231,147.575 129.193,147.667 129.250 C 147.758 129.307,147.833 129.269,147.833 129.167 C 147.833 129.064,147.908 129.027,148.000 129.083 C 148.092 129.140,148.167 129.102,148.167 129.000 C 148.167 128.898,148.242 128.860,148.333 128.917 C 148.425 128.973,148.500 128.957,148.500 128.880 C 148.500 128.803,148.706 128.651,148.958 128.544 C 149.210 128.436,150.542 127.620,151.917 126.732 C 153.292 125.843,155.670 124.321,157.201 123.350 C 162.954 119.700,175.555 108.136,175.208 106.824 C 175.185 106.738,175.249 106.685,175.350 106.708 C 175.590 106.763,177.370 104.202,177.986 102.917 C 178.428 101.995,178.905 100.135,180.102 94.667 C 180.506 92.821,180.560 92.221,180.571 89.408 L 180.583 86.232 178.972 83.824 C 173.905 76.253,164.071 67.565,156.500 63.971 C 152.931 62.277,151.842 61.682,150.591 60.743 C 149.854 60.189,148.046 58.831,146.575 57.726 C 141.891 54.204,139.833 52.929,139.556 53.378 M155.808 191.645 C 156.005 191.816,156.167 192.037,156.167 192.136 C 156.167 192.236,156.286 192.383,156.432 192.465 C 156.577 192.547,156.688 192.664,156.678 192.725 C 156.668 192.787,156.766 193.042,156.895 193.293 C 157.493 194.454,158.011 196.656,158.181 198.750 C 158.385 201.270,158.584 201.743,159.672 202.292 C 161.492 203.210,164.300 204.371,164.833 204.426 C 166.575 204.607,166.964 204.664,167.461 204.814 C 167.761 204.905,168.043 204.982,168.088 204.987 C 168.688 205.050,172.255 207.667,171.740 207.667 C 171.702 207.667,171.922 208.060,172.230 208.542 C 172.538 209.023,173.127 210.092,173.540 210.917 C 175.085 214.001,175.966 216.967,176.413 220.583 C 176.447 220.858,176.514 221.383,176.562 221.750 C 176.610 222.117,176.698 223.392,176.758 224.583 L 176.867 226.750 176.156 227.799 C 174.055 230.900,171.261 232.058,169.887 230.397 C 167.612 227.647,166.775 227.142,164.546 227.180 C 163.006 227.207,162.673 227.122,160.629 226.182 C 160.013 225.899,158.925 225.472,158.212 225.233 C 156.581 224.686,156.328 224.553,155.917 224.022 C 155.733 223.786,155.196 223.200,154.723 222.720 C 154.239 222.229,153.815 221.627,153.752 221.341 C 153.690 221.062,153.571 220.833,153.487 220.833 C 153.402 220.833,153.349 220.777,153.367 220.708 C 153.430 220.477,152.935 219.333,152.772 219.333 C 152.684 219.333,152.658 219.287,152.715 219.229 C 152.772 219.172,152.577 218.666,152.281 218.104 C 151.985 217.543,151.718 216.858,151.687 216.583 C 151.657 216.308,151.573 216.046,151.500 216.000 C 151.380 215.925,151.393 215.015,151.586 209.917 C 151.671 207.651,151.979 202.939,152.097 202.083 C 152.215 201.229,152.312 200.606,152.422 200.000 C 152.481 199.679,152.551 199.220,152.579 198.980 C 152.607 198.740,152.674 198.402,152.728 198.230 C 152.781 198.058,152.873 197.504,152.932 197.000 C 153.107 195.511,153.120 195.428,153.216 195.167 C 153.267 195.029,153.398 194.617,153.508 194.250 C 153.921 192.871,154.574 191.674,155.000 191.515 C 155.229 191.430,155.424 191.354,155.433 191.346 C 155.442 191.339,155.610 191.473,155.808 191.645 " stroke="none" fill="#04dcd4" fill-rule="evenodd"></path><path id="path1" d="M192.000 0.110 C 184.803 0.415,180.205 0.754,176.583 1.249 C 175.575 1.386,173.325 1.690,171.583 1.923 C 169.842 2.156,167.442 2.533,166.250 2.761 C 158.767 4.192,153.671 5.227,152.779 5.496 C 152.213 5.667,150.775 6.038,149.583 6.321 C 148.392 6.603,147.154 6.945,146.833 7.080 C 146.512 7.215,145.387 7.550,144.333 7.823 C 141.739 8.497,137.876 9.641,137.531 9.837 C 137.376 9.925,136.387 10.268,135.333 10.600 C 134.279 10.932,133.342 11.260,133.250 11.328 C 133.053 11.474,132.290 11.748,130.917 12.165 C 129.370 12.636,122.451 15.370,122.090 15.654 C 121.995 15.729,121.617 15.886,121.250 16.003 C 120.538 16.231,116.250 18.111,115.417 18.562 C 114.744 18.925,111.038 20.667,110.937 20.667 C 110.830 20.667,102.087 25.346,100.546 26.228 C 96.960 28.280,94.896 29.512,93.250 30.583 C 92.242 31.239,90.667 32.249,89.750 32.827 C 88.833 33.405,87.581 34.224,86.968 34.647 C 86.354 35.071,85.042 35.972,84.051 36.650 C 81.727 38.242,76.436 42.195,76.350 42.404 C 76.258 42.629,75.710 43.125,74.592 44.000 C 74.064 44.413,72.844 45.425,71.880 46.250 C 70.916 47.075,69.971 47.862,69.780 48.000 C 69.588 48.137,69.203 48.463,68.924 48.723 C 68.645 48.983,67.106 50.371,65.504 51.806 C 58.605 57.988,48.870 68.336,43.917 74.750 C 43.281 75.575,42.717 76.287,42.664 76.333 C 42.577 76.410,40.999 78.481,40.237 79.519 C 40.061 79.759,39.342 80.711,38.641 81.636 C 37.939 82.562,36.945 83.940,36.433 84.701 C 35.921 85.461,35.202 86.496,34.836 87.000 C 34.120 87.985,33.228 89.318,32.522 90.460 C 31.787 91.649,30.142 94.209,29.640 94.944 C 29.380 95.326,29.167 95.689,29.167 95.752 C 29.167 95.814,29.016 96.076,28.833 96.334 C 28.342 97.023,25.565 101.833,24.598 103.667 C 24.139 104.537,23.518 105.700,23.218 106.250 C 22.917 106.800,21.847 108.938,20.839 111.000 C 19.831 113.063,18.819 115.103,18.591 115.533 C 18.061 116.533,16.482 120.126,16.025 121.371 C 15.832 121.896,15.596 122.459,15.500 122.621 C 15.033 123.417,12.678 129.452,11.971 131.667 C 11.693 132.537,11.407 133.325,11.335 133.417 C 11.263 133.508,10.930 134.446,10.594 135.500 C 10.259 136.554,9.881 137.642,9.755 137.917 C 9.628 138.192,9.067 140.029,8.507 142.000 C 7.947 143.971,7.305 146.183,7.081 146.917 C 6.856 147.650,6.438 149.225,6.151 150.417 C 5.864 151.608,5.566 152.705,5.487 152.853 C 5.331 153.149,3.660 161.316,3.156 164.250 C 2.982 165.258,2.764 166.383,2.671 166.750 C 2.578 167.117,2.239 169.329,1.917 171.667 C 1.596 174.004,1.262 176.404,1.175 177.000 C 0.123 184.245,-0.335 203.936,0.327 213.500 C 0.650 218.163,0.999 221.880,1.330 224.167 C 1.509 225.404,1.848 227.842,2.084 229.583 C 2.320 231.325,2.621 233.200,2.752 233.750 C 2.883 234.300,3.110 235.463,3.256 236.333 C 3.708 239.038,5.171 246.144,5.498 247.223 C 5.669 247.788,6.003 249.075,6.240 250.083 C 6.478 251.092,6.892 252.629,7.161 253.500 C 7.430 254.371,8.074 256.583,8.591 258.417 C 9.109 260.250,9.634 261.975,9.759 262.250 C 9.884 262.525,10.221 263.500,10.508 264.417 C 10.796 265.333,11.169 266.383,11.337 266.750 C 11.506 267.117,11.865 268.092,12.137 268.917 C 12.983 271.492,15.026 276.681,15.646 277.833 C 15.818 278.154,16.053 278.717,16.168 279.083 C 16.283 279.450,16.629 280.295,16.938 280.962 C 17.247 281.629,17.500 282.214,17.500 282.262 C 17.500 282.358,19.242 285.964,21.239 290.000 C 25.107 297.821,30.322 306.607,35.505 314.035 C 36.190 315.017,37.087 316.304,37.500 316.895 C 37.912 317.486,38.807 318.708,39.488 319.610 C 40.169 320.512,41.064 321.700,41.478 322.250 C 41.892 322.800,42.460 323.521,42.740 323.852 C 43.021 324.183,43.623 324.933,44.079 325.518 C 44.535 326.104,45.472 327.244,46.162 328.050 C 46.852 328.857,47.618 329.780,47.863 330.101 C 48.355 330.743,50.329 332.956,53.350 336.250 C 56.254 339.417,65.454 348.420,66.942 349.551 C 67.206 349.752,67.838 350.308,68.346 350.786 C 68.854 351.265,69.542 351.865,69.876 352.120 C 70.209 352.375,71.143 353.148,71.950 353.838 C 72.756 354.528,73.896 355.465,74.482 355.921 C 75.067 356.377,75.817 356.982,76.148 357.267 C 76.479 357.551,77.425 358.284,78.250 358.897 C 80.527 360.587,81.135 361.045,81.703 361.500 C 81.989 361.729,83.017 362.463,83.987 363.132 C 84.956 363.800,86.200 364.659,86.750 365.041 C 93.619 369.808,102.448 375.024,109.833 378.678 C 114.131 380.804,117.636 382.500,117.732 382.500 C 117.784 382.500,118.371 382.753,119.038 383.062 C 119.705 383.371,120.550 383.720,120.917 383.837 C 121.283 383.954,121.996 384.256,122.500 384.508 C 123.004 384.759,123.904 385.137,124.500 385.347 C 125.096 385.557,125.733 385.823,125.917 385.937 C 126.350 386.208,129.512 387.360,135.333 389.369 C 136.479 389.765,137.492 390.134,137.583 390.190 C 137.782 390.310,143.590 392.004,145.250 392.425 C 145.892 392.588,146.604 392.812,146.833 392.922 C 147.063 393.033,148.262 393.364,149.500 393.658 C 150.737 393.952,152.215 394.333,152.784 394.505 C 153.852 394.828,160.878 396.273,163.667 396.742 C 164.537 396.889,165.700 397.117,166.250 397.248 C 167.377 397.518,171.241 398.075,177.750 398.907 C 188.987 400.344,210.695 400.349,221.833 398.916 C 229.637 397.913,232.098 397.559,233.417 397.250 C 233.967 397.122,235.504 396.823,236.833 396.588 C 239.951 396.034,246.388 394.701,246.924 394.497 C 247.151 394.411,248.443 394.075,249.794 393.751 C 251.145 393.427,252.524 393.054,252.858 392.923 C 253.192 392.791,254.167 392.499,255.025 392.275 C 257.168 391.713,261.880 390.325,262.083 390.195 C 262.175 390.136,263.150 389.779,264.250 389.401 C 268.335 387.997,268.968 387.772,271.250 386.907 C 274.053 385.845,276.666 384.786,277.602 384.332 C 277.978 384.149,278.331 384.000,278.386 384.000 C 278.570 384.000,282.071 382.472,283.917 381.585 C 290.064 378.633,291.357 377.992,293.917 376.630 C 295.475 375.801,297.237 374.841,297.833 374.496 C 301.032 372.645,304.023 370.881,304.833 370.367 C 310.507 366.770,315.426 363.450,318.317 361.267 C 319.179 360.616,320.184 359.871,320.552 359.611 C 320.919 359.351,321.741 358.714,322.378 358.194 C 323.016 357.675,323.920 356.965,324.389 356.617 C 324.857 356.269,325.280 355.931,325.328 355.866 C 325.377 355.801,325.717 355.525,326.083 355.252 C 327.877 353.917,334.525 348.069,337.696 345.037 C 343.895 339.110,351.402 330.978,355.417 325.842 C 355.692 325.490,356.705 324.200,357.669 322.976 C 358.633 321.752,359.563 320.529,359.736 320.258 C 359.910 319.988,360.479 319.238,361.002 318.592 C 361.526 317.945,362.226 317.004,362.560 316.500 C 363.215 315.508,364.059 314.281,365.082 312.833 C 366.084 311.413,367.553 309.170,368.078 308.258 C 368.339 307.804,368.785 307.115,369.068 306.726 C 369.771 305.760,370.108 305.213,372.124 301.750 C 373.085 300.100,374.069 298.412,374.311 298.000 C 375.954 295.194,382.500 282.216,382.500 281.765 C 382.500 281.715,382.754 281.129,383.065 280.462 C 383.376 279.795,383.755 278.877,383.909 278.421 C 384.063 277.965,384.252 277.514,384.330 277.420 C 384.603 277.092,387.426 269.847,388.067 267.833 C 388.315 267.054,388.620 266.192,388.744 265.917 C 389.095 265.144,390.902 259.631,391.477 257.583 C 391.759 256.575,392.223 254.963,392.506 254.000 C 392.790 253.037,393.341 250.971,393.731 249.409 C 394.120 247.846,394.485 246.492,394.542 246.400 C 394.671 246.192,396.394 237.522,396.758 235.250 C 396.905 234.333,397.093 233.358,397.176 233.083 C 397.354 232.497,397.843 229.209,398.331 225.333 C 398.521 223.821,398.744 222.133,398.828 221.583 C 400.200 212.518,400.246 189.667,398.913 179.083 C 398.786 178.075,398.528 176.015,398.339 174.506 C 397.909 171.069,397.328 167.127,397.229 166.966 C 397.187 166.898,396.935 165.585,396.669 164.047 C 396.095 160.738,394.683 153.661,394.555 153.454 C 394.506 153.375,394.140 152.021,393.741 150.446 C 393.343 148.872,392.780 146.758,392.490 145.750 C 392.200 144.742,391.782 143.279,391.560 142.500 C 391.203 141.245,389.534 136.164,388.247 132.417 C 387.431 130.037,386.142 126.606,385.712 125.667 C 385.482 125.162,385.151 124.342,384.978 123.842 C 384.804 123.343,384.562 122.780,384.440 122.592 C 384.317 122.404,384.120 121.950,384.000 121.583 C 383.771 120.877,381.955 116.706,381.571 116.000 C 381.446 115.771,380.888 114.608,380.332 113.417 C 378.756 110.045,375.409 103.629,373.550 100.417 C 370.813 95.688,369.546 93.663,366.116 88.529 C 361.868 82.168,358.392 77.532,353.250 71.366 C 345.639 62.238,333.004 49.890,325.164 43.917 C 324.683 43.550,323.978 42.987,323.596 42.667 C 322.272 41.553,320.393 40.167,320.205 40.167 C 320.101 40.167,319.957 40.068,319.883 39.947 C 319.748 39.725,317.632 38.102,315.984 36.957 C 315.489 36.613,314.821 36.149,314.500 35.926 C 311.934 34.144,309.291 32.379,308.667 32.031 C 308.254 31.802,307.606 31.382,307.227 31.098 C 306.848 30.815,306.173 30.363,305.727 30.094 C 305.281 29.825,304.323 29.244,303.598 28.802 C 302.873 28.361,302.262 28.000,302.241 28.000 C 302.219 28.000,301.413 27.531,300.448 26.958 C 299.484 26.385,298.445 25.769,298.139 25.588 C 295.419 23.980,283.932 18.214,281.833 17.404 C 281.421 17.244,280.998 17.049,280.894 16.969 C 280.790 16.889,280.078 16.595,279.312 16.316 C 278.546 16.036,277.839 15.741,277.741 15.659 C 277.643 15.578,276.855 15.244,275.990 14.918 C 275.125 14.591,274.224 14.217,273.988 14.087 C 273.385 13.753,267.898 11.755,264.333 10.571 C 263.371 10.251,262.433 9.918,262.250 9.831 C 261.695 9.567,257.018 8.191,254.583 7.574 C 253.942 7.411,253.229 7.188,253.000 7.078 C 252.771 6.967,251.571 6.636,250.333 6.342 C 249.096 6.048,247.631 5.671,247.077 5.504 C 246.055 5.195,239.138 3.773,235.661 3.158 C 234.610 2.972,232.963 2.677,232.000 2.504 C 231.037 2.331,228.975 2.033,227.417 1.843 C 225.858 1.653,224.246 1.426,223.833 1.339 C 219.500 0.420,201.291 -0.283,192.000 0.110 M204.830 9.504 C 289.696 11.924,362.064 68.795,384.060 150.354 C 414.691 263.926,335.730 378.249,218.667 389.820 C 211.618 390.516,209.962 390.583,199.833 390.583 C 189.714 390.583,188.365 390.528,181.167 389.819 C 95.609 381.386,26.162 316.412,12.014 231.562 C 0.745 163.973,26.567 95.465,79.611 52.229 C 81.001 51.096,82.163 50.099,82.194 50.015 C 82.489 49.201,94.814 40.734,101.733 36.591 C 129.986 19.676,163.070 10.073,195.250 9.448 C 196.442 9.425,197.792 9.391,198.250 9.373 C 198.708 9.355,201.669 9.414,204.830 9.504 " stroke="none" fill="#fc452d" fill-rule="evenodd"></path><path id="path2" d="M194.333 9.690 C 161.408 10.482,128.336 20.391,99.667 38.052 C 93.471 41.868,82.909 49.238,82.149 50.275 C 82.021 50.449,81.542 50.890,81.083 51.253 C 43.078 81.399,17.310 127.197,11.177 175.500 C 8.416 197.246,9.317 219.112,13.845 240.250 C 30.688 318.876,95.808 378.793,175.500 388.989 C 184.676 390.163,189.001 390.416,199.917 390.416 C 272.707 390.416,338.244 349.805,370.572 284.667 C 413.245 198.683,385.333 94.477,305.417 41.415 C 272.345 19.456,234.741 8.717,194.333 9.690 M142.409 54.706 C 143.229 55.261,145.104 56.620,146.575 57.726 C 148.046 58.831,149.854 60.189,150.591 60.743 C 151.842 61.682,152.931 62.277,156.500 63.971 C 164.071 67.565,173.905 76.253,178.972 83.824 L 180.583 86.232 180.571 89.408 C 180.560 92.221,180.506 92.821,180.102 94.667 C 179.065 99.408,178.442 101.940,178.144 102.636 C 176.080 107.451,165.011 118.398,157.201 123.348 C 152.760 126.163,150.146 127.828,149.250 128.414 C 148.792 128.713,147.738 129.299,146.908 129.714 C 146.078 130.130,145.300 130.590,145.179 130.735 C 145.058 130.881,144.882 131.000,144.789 131.000 C 144.695 131.000,144.231 131.257,143.759 131.570 C 141.557 133.032,129.408 138.797,123.833 141.026 C 122.229 141.668,120.392 142.413,119.750 142.682 C 118.116 143.369,116.682 143.253,116.175 142.393 C 115.993 142.085,115.739 141.833,115.609 141.833 C 113.652 141.833,118.734 130.094,122.726 125.393 C 123.360 124.646,123.058 124.688,121.704 125.534 C 119.498 126.913,118.374 128.111,116.102 131.500 C 113.777 134.970,112.650 137.052,112.402 138.333 C 112.269 139.021,112.002 140.033,111.810 140.583 C 111.248 142.189,111.300 143.974,111.949 145.361 C 112.233 145.968,112.519 146.705,112.583 146.999 C 112.814 148.051,114.060 150.725,114.695 151.532 C 117.011 154.475,124.832 156.339,129.979 155.175 C 130.770 154.996,132.242 154.727,133.250 154.576 C 137.302 153.969,139.531 153.228,144.167 150.946 C 150.878 147.643,156.698 146.481,161.948 147.398 C 164.075 147.769,164.372 147.993,165.846 150.333 C 166.337 151.112,167.229 152.445,167.828 153.295 C 168.427 154.145,169.086 155.155,169.292 155.540 C 170.056 156.963,170.185 156.925,171.417 154.917 C 173.002 152.332,173.232 152.129,175.764 151.084 C 176.581 150.746,178.675 149.733,180.417 148.832 C 182.715 147.643,184.086 147.048,185.417 146.660 C 186.425 146.366,188.037 145.817,189.000 145.440 C 191.596 144.422,194.430 144.555,197.833 145.855 C 199.805 146.608,201.258 147.211,201.427 147.346 C 201.622 147.504,202.610 148.029,206.083 149.823 C 209.940 151.816,211.521 152.693,212.578 153.426 C 216.588 156.206,217.656 156.434,219.583 154.917 C 223.273 152.013,229.182 149.198,234.250 147.928 C 235.167 147.698,236.442 147.351,237.083 147.157 C 239.498 146.426,244.581 147.336,250.206 149.505 C 252.169 150.262,252.834 150.460,253.833 150.585 C 254.338 150.649,255.237 150.812,255.833 150.949 C 258.412 151.540,259.599 150.990,263.065 147.603 C 266.964 143.792,268.423 142.753,271.633 141.507 C 272.577 141.141,273.448 140.783,273.568 140.712 C 274.087 140.407,275.682 138.300,276.318 137.077 C 276.698 136.347,277.244 135.375,277.530 134.917 C 279.355 131.999,279.413 125.658,277.654 121.553 C 276.846 119.668,275.500 120.207,275.500 122.416 C 275.500 125.704,273.872 130.363,271.949 132.577 C 270.890 133.797,270.896 133.800,269.808 131.540 C 268.144 128.083,265.972 125.945,262.216 124.069 C 260.974 123.449,259.536 122.634,259.020 122.257 C 254.388 118.874,250.456 116.959,247.203 116.503 C 245.606 116.279,242.717 115.061,240.806 113.806 C 239.989 113.270,238.817 112.576,238.202 112.263 C 237.025 111.666,236.491 111.164,234.516 108.795 C 233.849 107.995,232.759 106.931,232.095 106.431 C 230.283 105.067,230.142 104.880,227.539 100.404 C 226.696 98.956,225.668 97.795,224.070 96.489 C 222.509 95.214,221.987 94.204,221.398 91.328 C 219.973 84.363,221.315 79.307,225.753 74.917 C 227.168 73.517,228.109 72.409,228.887 71.224 C 230.392 68.934,231.166 68.285,234.296 66.686 C 236.913 65.349,237.278 65.087,240.291 62.397 C 242.187 60.704,245.849 58.788,249.250 57.710 C 249.983 57.478,252.346 56.632,254.500 55.831 C 261.891 53.083,262.498 52.938,263.155 53.772 C 263.695 54.460,263.598 55.130,262.792 56.262 C 262.402 56.809,261.942 57.518,261.769 57.837 C 261.479 58.372,259.018 62.483,258.250 63.715 C 258.067 64.009,257.279 65.188,256.500 66.333 C 254.382 69.448,253.876 70.302,253.387 71.583 C 253.142 72.225,252.620 73.425,252.228 74.250 C 250.673 77.517,250.836 79.963,252.674 80.952 C 253.148 81.208,254.091 81.772,254.769 82.206 C 256.883 83.558,258.541 84.448,265.416 87.920 C 269.083 89.772,272.796 91.713,273.667 92.234 C 274.537 92.755,275.813 93.449,276.500 93.776 C 277.188 94.103,278.875 94.916,280.250 95.583 C 281.625 96.250,283.336 97.039,284.053 97.335 C 286.625 98.398,287.839 99.514,290.250 103.031 C 292.055 105.663,292.634 106.059,295.562 106.663 C 296.100 106.774,297.049 107.082,297.670 107.346 C 298.292 107.611,299.629 108.021,300.642 108.259 C 302.026 108.584,302.658 108.822,303.189 109.220 C 303.577 109.512,304.312 110.040,304.822 110.395 C 306.143 111.314,307.470 112.641,309.174 114.750 C 310.424 116.296,316.841 122.741,318.629 124.244 C 319.902 125.315,322.108 128.373,323.923 131.583 C 326.507 136.154,327.279 137.389,328.157 138.349 C 329.575 139.903,332.334 146.292,332.907 149.351 C 333.264 151.261,333.934 153.946,334.502 155.750 C 335.783 159.812,335.778 162.086,334.483 166.068 C 333.719 168.416,333.743 168.377,332.053 170.095 C 330.495 171.679,329.848 172.883,329.245 175.321 C 328.796 177.136,328.550 177.865,328.342 177.997 C 328.266 178.044,327.734 178.796,327.160 179.667 C 326.586 180.537,325.396 182.106,324.516 183.153 C 323.636 184.200,322.536 185.512,322.071 186.070 C 320.248 188.253,317.299 190.669,315.073 191.800 C 313.709 192.493,312.904 193.065,311.465 194.363 C 309.962 195.719,303.989 199.751,302.017 200.741 C 300.434 201.536,298.917 202.030,293.833 203.408 C 291.954 203.917,289.805 204.517,289.058 204.740 C 287.413 205.232,286.191 205.405,281.378 205.827 C 279.340 206.006,277.535 206.225,277.367 206.315 C 277.200 206.405,276.552 206.597,275.927 206.742 C 275.293 206.889,274.454 207.232,274.029 207.519 C 273.610 207.802,272.888 208.201,272.425 208.406 C 271.962 208.611,271.275 209.072,270.897 209.431 C 268.563 211.650,264.818 212.587,263.173 211.364 C 262.724 211.031,261.006 208.418,260.140 206.750 C 259.854 206.200,259.451 205.525,259.245 205.250 C 258.306 203.996,256.855 200.584,256.339 198.417 C 255.330 194.178,255.215 193.766,255.025 193.703 C 254.920 193.668,254.833 193.778,254.833 193.949 C 254.833 194.120,254.732 194.407,254.607 194.588 C 254.483 194.769,254.288 195.217,254.174 195.583 C 254.061 195.950,253.783 196.725,253.557 197.305 C 252.387 200.307,252.397 201.996,253.593 203.172 C 254.102 203.673,254.829 204.496,255.208 205.000 C 255.588 205.504,255.987 205.993,256.095 206.086 C 256.260 206.229,257.472 207.990,260.403 212.346 C 260.686 212.766,261.179 213.540,261.500 214.067 C 261.821 214.595,262.796 215.764,263.667 216.665 C 265.402 218.461,265.586 218.750,266.330 220.833 C 266.709 221.894,267.101 222.585,267.891 223.583 C 268.471 224.317,269.342 225.667,269.827 226.583 C 270.313 227.500,271.110 228.785,271.600 229.439 C 273.433 231.888,274.516 236.324,273.609 237.670 C 273.269 238.174,272.946 238.916,272.125 241.083 C 271.822 241.882,267.527 246.031,263.597 249.320 C 263.223 249.633,262.504 250.281,262.000 250.759 C 260.756 251.940,260.496 252.052,259.324 251.916 C 257.349 251.686,255.608 252.762,254.650 254.803 C 253.778 256.661,251.172 258.761,249.590 258.880 C 248.999 258.925,247.582 255.926,247.320 254.075 C 247.159 252.934,246.211 250.124,245.723 249.337 C 245.554 249.066,244.973 248.110,244.430 247.214 C 243.888 246.317,243.400 245.546,243.347 245.500 C 243.181 245.357,242.471 243.621,242.240 242.795 C 242.119 242.361,241.765 241.161,241.453 240.128 C 241.140 239.095,240.801 237.815,240.699 237.283 C 240.597 236.750,240.106 235.400,239.608 234.283 C 237.292 229.085,237.052 223.175,239.048 220.458 C 239.516 219.821,240.165 217.521,240.170 216.480 C 240.172 216.078,240.325 215.417,240.510 215.010 C 240.983 213.966,241.170 212.299,241.128 209.500 C 241.105 207.989,241.199 206.218,241.379 204.776 C 241.756 201.755,241.742 200.566,241.307 198.568 C 240.703 195.792,240.791 194.893,241.987 191.583 C 242.551 190.025,242.990 188.601,242.964 188.418 C 242.889 187.896,242.340 187.908,241.878 188.442 C 241.143 189.290,239.241 191.878,238.160 193.500 C 236.772 195.583,235.147 197.704,234.097 198.805 C 232.019 200.983,229.543 200.651,228.572 198.064 C 228.404 197.616,228.063 196.987,227.814 196.667 C 226.872 195.455,226.192 193.958,226.073 192.833 C 225.950 191.670,224.663 187.733,223.758 185.750 C 223.452 185.079,222.201 181.357,222.106 180.833 C 222.015 180.338,221.895 180.000,221.452 179.000 C 221.269 178.588,220.991 177.949,220.833 177.582 C 220.675 177.214,220.067 176.324,219.481 175.605 C 217.902 173.665,217.534 173.054,217.323 172.020 C 217.126 171.053,216.509 169.436,216.384 169.560 C 216.345 169.599,216.427 169.902,216.565 170.233 C 216.752 170.679,216.793 171.190,216.725 172.209 C 216.635 173.543,216.650 173.617,217.235 174.750 C 218.264 176.745,218.789 178.494,219.760 183.167 C 219.998 184.313,220.481 186.150,220.832 187.250 C 221.631 189.751,221.948 190.899,222.074 191.750 C 222.128 192.117,222.278 192.792,222.407 193.250 C 222.536 193.708,223.025 196.033,223.493 198.417 C 223.962 200.800,224.496 203.405,224.680 204.205 C 225.092 205.997,224.687 206.833,223.405 206.833 C 222.893 206.833,220.666 208.378,220.293 208.992 C 220.095 209.317,219.471 210.071,218.906 210.667 C 217.309 212.349,216.217 214.611,215.969 216.750 C 215.606 219.873,215.607 220.452,215.982 221.248 C 216.175 221.660,216.333 222.127,216.333 222.287 C 216.333 224.986,222.678 228.782,226.014 228.080 C 227.846 227.695,228.190 227.458,230.449 225.020 C 233.160 222.093,233.306 222.015,234.251 223.001 C 234.740 223.511,234.831 223.854,235.680 228.417 C 235.953 229.883,236.357 231.721,236.578 232.500 C 236.798 233.279,237.024 234.479,237.079 235.167 C 237.515 240.579,239.558 245.289,242.242 247.070 C 243.999 248.237,244.539 249.647,244.931 254.083 C 245.068 255.642,245.294 257.404,245.432 258.000 C 245.776 259.478,245.621 260.516,244.941 261.297 C 243.651 262.777,243.303 263.012,240.464 264.330 C 237.276 265.808,236.069 268.580,236.205 274.104 L 236.287 277.417 237.073 279.740 L 237.860 282.064 238.044 285.824 C 238.257 290.154,238.255 289.793,238.105 295.250 C 237.960 300.552,237.939 300.760,237.427 301.976 C 237.057 302.855,237.000 303.232,237.000 304.814 C 237.000 306.269,236.932 306.797,236.667 307.417 C 235.451 310.252,234.479 317.599,234.076 327.000 C 233.830 332.753,232.949 334.736,228.868 338.723 L 228.042 339.529 226.146 339.687 C 225.103 339.774,223.056 339.824,221.597 339.798 L 218.944 339.750 218.789 339.283 C 218.530 338.505,218.941 337.878,221.176 335.649 C 223.536 333.295,223.498 333.374,223.501 330.685 C 223.502 329.987,223.618 328.554,223.760 327.500 C 223.901 326.446,224.008 324.646,223.997 323.500 C 223.944 317.874,223.945 316.681,224.004 315.833 C 224.039 315.329,224.006 313.229,223.931 311.167 C 223.819 308.078,223.842 307.108,224.058 305.667 C 224.332 303.848,224.262 302.991,223.760 302.020 C 223.593 301.697,223.481 300.207,223.352 296.579 C 223.207 292.512,223.113 291.367,222.846 290.417 C 222.622 289.617,222.515 288.699,222.507 287.500 C 222.500 286.537,222.424 285.075,222.339 284.250 C 222.253 283.425,222.140 279.825,222.087 276.250 C 222.034 272.675,221.921 268.813,221.835 267.667 C 221.750 266.521,221.632 264.533,221.574 263.250 C 221.290 256.959,220.995 255.000,220.331 255.000 C 219.638 255.000,219.155 256.482,218.755 259.833 C 218.608 261.071,218.420 262.533,218.338 263.083 C 218.186 264.101,218.089 265.273,217.913 268.250 C 217.859 269.167,217.743 270.629,217.656 271.500 C 217.568 272.371,217.423 274.133,217.334 275.417 C 217.244 276.700,217.058 279.325,216.921 281.250 C 216.784 283.175,216.670 286.362,216.669 288.333 C 216.665 291.798,216.515 294.771,216.167 298.250 C 215.952 300.408,215.697 307.004,215.497 315.601 L 215.338 322.452 214.668 324.851 C 213.601 328.671,213.527 328.875,212.919 329.701 C 211.584 331.512,208.266 331.367,207.045 329.442 C 205.857 327.572,205.281 326.218,204.908 324.417 C 204.700 323.408,204.362 321.838,204.158 320.927 C 203.821 319.421,203.805 319.130,203.977 317.728 C 204.335 314.819,204.132 310.170,203.561 308.167 C 203.376 307.519,203.286 306.345,203.253 304.167 C 203.183 299.544,202.880 293.402,202.656 292.083 C 202.368 290.389,202.338 260.313,202.622 258.930 C 202.755 258.286,203.051 257.620,203.474 257.013 C 204.556 255.464,205.127 254.642,206.030 253.333 C 206.847 252.148,208.313 250.243,209.107 249.333 C 210.593 247.630,211.993 244.980,212.173 243.532 C 212.500 240.894,211.473 236.021,210.477 235.488 C 210.032 235.249,207.256 234.500,206.819 234.500 C 205.930 234.500,204.036 237.975,203.322 240.917 C 203.211 241.375,202.638 242.723,202.048 243.912 C 200.675 246.683,200.243 248.195,200.097 250.741 C 199.873 254.629,199.453 256.901,198.918 257.106 C 197.700 257.573,197.307 256.850,196.412 252.500 C 195.825 249.647,195.749 249.431,194.784 247.943 L 193.937 246.635 193.805 244.526 C 193.655 242.130,193.254 239.197,192.918 238.035 C 192.793 237.603,192.610 236.942,192.512 236.566 C 192.299 235.747,191.312 234.990,188.856 233.760 L 187.296 232.978 186.023 233.525 C 184.281 234.274,183.000 235.094,183.000 235.461 C 183.000 236.292,184.880 239.798,187.177 243.252 C 188.937 245.896,190.507 249.438,191.251 252.439 C 191.679 254.165,192.138 255.460,192.755 256.676 C 193.532 258.210,193.938 269.707,193.366 274.000 C 193.022 276.583,193.056 276.926,193.796 278.340 C 194.682 280.031,194.792 281.246,194.344 284.417 C 194.043 286.549,194.023 287.381,194.105 294.083 C 194.214 303.026,194.214 302.503,194.110 310.167 C 194.059 313.881,194.090 316.822,194.187 317.417 C 194.276 317.967,194.384 322.466,194.427 327.415 L 194.505 336.414 193.968 337.746 C 193.425 339.093,193.017 339.596,190.993 341.419 C 190.584 341.787,189.878 342.649,189.424 343.336 C 188.236 345.131,188.500 345.028,185.333 344.935 C 179.099 344.751,178.167 343.585,181.332 339.930 C 183.115 337.871,183.020 338.406,183.054 330.298 C 183.084 323.176,182.874 317.585,182.427 313.583 C 182.294 312.392,182.149 310.667,182.105 309.750 C 182.060 308.833,181.947 307.333,181.852 306.417 C 181.380 301.851,181.130 282.052,181.503 278.791 C 182.017 274.305,181.639 261.838,180.915 259.417 C 180.486 257.982,180.472 257.810,180.578 255.475 C 180.663 253.632,180.640 253.003,180.486 252.908 C 180.235 252.753,179.833 253.265,179.833 253.740 C 179.833 254.378,178.180 258.188,177.455 259.223 C 176.663 260.352,176.492 260.725,175.527 263.417 C 174.685 265.765,174.211 267.737,174.084 269.417 C 174.029 270.150,173.838 271.520,173.660 272.460 C 173.482 273.401,173.262 275.336,173.171 276.759 C 172.957 280.136,172.558 283.416,172.159 285.095 C 171.983 285.835,171.757 287.372,171.657 288.512 C 171.446 290.921,171.002 293.790,170.421 296.500 C 169.830 299.256,169.653 301.773,169.835 304.833 C 170.217 311.248,170.007 316.412,169.179 320.937 C 168.548 324.383,168.269 328.385,168.378 332.405 C 168.502 336.971,168.685 337.391,171.324 339.167 C 171.801 339.487,172.693 340.134,173.306 340.604 C 173.919 341.073,174.784 341.687,175.227 341.968 C 176.540 342.801,177.877 345.367,177.395 346.128 C 176.923 346.872,168.074 346.114,165.667 345.123 C 162.258 343.721,162.064 343.415,161.164 338.000 C 158.982 324.872,158.215 315.673,158.821 309.894 C 159.466 303.741,158.761 300.170,156.406 297.667 C 155.920 297.150,155.069 295.339,154.646 293.917 C 153.742 290.886,154.421 284.114,156.150 278.905 C 157.515 274.792,157.552 274.587,157.420 271.852 C 157.232 267.986,156.889 267.124,155.120 266.063 C 153.543 265.118,152.900 264.565,152.170 263.524 C 151.099 261.997,150.296 261.544,141.811 257.677 C 139.503 256.625,139.115 256.337,138.206 255.000 C 137.010 253.241,136.299 252.736,131.167 250.003 C 126.295 247.409,123.725 245.559,122.974 244.107 C 122.532 243.252,121.514 238.853,121.616 238.237 C 122.360 233.727,124.439 227.644,128.219 218.917 C 129.092 216.900,129.973 214.800,130.177 214.250 C 130.380 213.700,131.203 212.237,132.005 211.000 C 134.502 207.150,136.622 203.011,136.397 202.425 C 136.175 201.848,135.718 202.191,134.910 203.542 C 133.280 206.267,132.226 207.627,129.086 211.060 C 127.419 212.884,125.013 214.949,124.366 215.111 C 123.529 215.321,120.252 214.210,118.835 213.236 C 117.708 212.460,114.319 210.813,113.083 210.439 C 112.533 210.273,111.296 209.779,110.333 209.343 C 108.190 208.370,106.199 207.633,103.672 206.875 C 101.597 206.253,101.055 206.134,96.745 205.357 C 95.183 205.075,93.421 204.698,92.828 204.519 C 92.235 204.340,90.850 203.958,89.750 203.669 C 86.481 202.813,84.233 201.290,77.833 195.600 C 76.035 194.002,73.748 192.303,72.529 191.662 C 71.159 190.940,69.262 188.933,67.167 185.984 C 65.394 183.489,64.235 182.267,61.574 180.082 C 58.869 177.862,58.545 177.434,57.843 175.167 C 57.109 172.794,57.046 172.503,56.317 168.215 C 54.029 154.739,54.347 150.246,57.990 144.583 C 58.697 143.483,59.795 141.774,60.430 140.784 C 61.753 138.720,69.220 127.319,71.376 124.069 C 73.402 121.017,74.282 120.253,80.688 115.985 C 95.340 106.223,101.383 103.640,131.331 94.330 C 137.988 92.261,145.449 87.519,146.827 84.482 C 147.503 82.992,147.402 82.583,144.965 77.000 C 143.498 73.639,142.664 71.032,141.580 66.417 C 140.998 63.942,140.287 60.979,140.000 59.833 C 139.481 57.763,139.217 53.926,139.556 53.378 C 139.732 53.092,140.665 53.526,142.409 54.706 M154.548 191.949 C 153.130 194.009,152.172 199.678,151.653 209.083 C 151.551 210.917,151.430 212.953,151.384 213.608 C 151.266 215.256,151.662 216.844,152.750 219.090 C 153.242 220.106,153.694 221.135,153.755 221.377 C 154.029 222.469,156.491 224.640,158.066 225.180 C 158.872 225.455,160.218 225.994,161.058 226.376 C 162.491 227.028,162.700 227.075,164.500 227.161 C 167.123 227.285,167.475 227.497,169.887 230.400 C 171.758 232.653,176.833 229.081,176.833 225.511 C 176.833 222.404,175.850 216.606,174.880 214.000 C 172.411 207.361,169.536 204.522,165.264 204.503 C 164.659 204.500,161.769 203.359,159.672 202.294 C 158.583 201.741,158.384 201.269,158.182 198.750 C 157.805 194.050,155.749 190.203,154.548 191.949 " stroke="none" fill="#fbfbfb" fill-rule="evenodd"></path></g></svg>